<?xml version="1.0" encoding="UTF-8"?>
<svg width="15px" height="16px" viewBox="0 0 15 16" version="1.1" xmlns="http://www.w3.org/2000/svg" xmlns:xlink="http://www.w3.org/1999/xlink">
    <title>hero_icon_search</title>
    <g id="Page-1" stroke="none" stroke-width="1" fill="none" fill-rule="evenodd">
        <g id="Main-Home-Page" transform="translate(-779.000000, -491.000000)" fill="#333333">
            <g id="Group-5" transform="translate(250.000000, 170.000000)">
                <g id="Group-3" transform="translate(0.000000, 299.000000)">
                    <g id="Group-2" transform="translate(517.000000, 10.000000)">
                        <path d="M18.4874577,12.8 C21.6234725,12.8 24.1749155,15.4082084 24.1749155,18.6139944 C24.1749155,19.9003406 23.7598026,21.1391419 22.9976302,22.1521055 L22.8405885,22.3516342 L26.1932208,25.9161187 C26.4768518,26.2176881 26.4674552,26.6984803 26.1726965,26.9884217 C26.033972,27.1249242 25.8512318,27.2 25.6586001,27.2 C25.4890067,27.2 25.3288576,27.1425977 25.1984741,27.0367159 L25.1239784,26.9674407 L21.745876,23.3759088 C20.7866739,24.0649936 19.6647615,24.4279887 18.4874577,24.4279887 C15.351443,24.4279887 12.8,21.8197803 12.8,18.6139944 C12.8,15.4082084 15.351443,12.8 18.4874577,12.8 Z M18.4874577,14.3166942 C16.1694479,14.3166942 14.2836846,16.2444126 14.2836846,18.6139944 C14.2836846,20.9835761 16.1694479,22.9112945 18.4874577,22.9112945 C20.8054676,22.9112945 22.6912308,20.9835761 22.6912308,18.6139944 C22.6912308,16.2444126 20.8054676,14.3166942 18.4874577,14.3166942 Z" id="hero_icon_search"></path>
                    </g>
                </g>
            </g>
        </g>
    </g>
</svg>